<svg width="34" height="38" viewBox="0 0 96 108" fill="none" xmlns="http://www.w3.org/2000/svg" role="img" aria-label="Verification in progress">
  <defs>
    <mask id="wiseverse-cutout" maskUnits="userSpaceOnUse" x="0" y="0" width="96" height="108">
      <rect width="96" height="108" fill="white"/>
      <path d="M34 30L18 40V73L48 92L78 73V40L62 30V64L48 56L34 64V30Z" fill="black"/>
    </mask>
  </defs>

  <g mask="url(#wiseverse-cutout)">
    <path d="M48 2L4 27V81L18 73V40L34 30V64L48 56V2Z" fill="#EAD28E" fill-opacity=".72" stroke="#C8A96E" stroke-opacity=".48"/>
    <path d="M48 2L92 27V81L78 73V40L62 30V64L48 56V2Z" fill="#C8A96E" fill-opacity=".60" stroke="#C8A96E" stroke-opacity=".38"/>
    <path d="M4 81L18 73L48 92L78 73L92 81L48 106L4 81Z" fill="#976C30" fill-opacity=".76" stroke="#C8A96E" stroke-opacity=".42"/>
  </g>
</svg>
