<svg width="76" height="86" viewBox="0 0 96 108" fill="none" xmlns="http://www.w3.org/2000/svg" role="img" aria-label="Verified">
  <defs>
    <mask id="wiseverse-cutout" maskUnits="userSpaceOnUse" x="0" y="0" width="96" height="108">
      <rect width="96" height="108" fill="white"/>
      <path d="M34 30L18 40V73L48 92L78 73V40L62 30V64L48 56L34 64V30Z" fill="black"/>
    </mask>
    <filter id="check-glow" x="31" y="37" width="35" height="33" filterUnits="userSpaceOnUse" color-interpolation-filters="sRGB">
      <feDropShadow dx="0" dy="0" stdDeviation="2" flood-color="#C8A96E" flood-opacity=".45"/>
    </filter>
  </defs>

  <g mask="url(#wiseverse-cutout)">
    <path d="M48 2L4 27V81L18 89V40L34 30V64L48 56V2Z" fill="#EAD28E" fill-opacity=".90" stroke="#C8A96E" stroke-opacity=".45"/>
    <path d="M48 2L92 27V81L78 89V40L62 30V64L48 56V2Z" fill="#C8A96E" fill-opacity=".82" stroke="#C8A96E" stroke-opacity=".38"/>
    <path d="M4 81L18 73L48 92L78 73L92 81L48 106L4 81Z" fill="#976C30" fill-opacity=".92" stroke="#C8A96E" stroke-opacity=".35"/>
  </g>

  <circle cx="48" cy="55" r="18" fill="#080808"/>
  <path d="M37 55L45 64L60 43" stroke="#F2EDE3" stroke-width="4.2" stroke-linecap="round" stroke-linejoin="round" filter="url(#check-glow)"/>
</svg>
